<svg width="36" height="37" viewBox="0 0 36 37" fill="none" xmlns="http://www.w3.org/2000/svg">
<path d="M12.5303 11.9697C12.2374 11.6768 11.7626 11.6768 11.4697 11.9697C11.1768 12.2626 11.1768 12.7374 11.4697 13.0303L16.9393 18.5L11.4697 23.9697C11.1768 24.2626 11.1768 24.7374 11.4697 25.0303C11.7626 25.3232 12.2374 25.3232 12.5303 25.0303L18 19.5607L23.4697 25.0303C23.7626 25.3232 24.2374 25.3232 24.5303 25.0303C24.8232 24.7374 24.8232 24.2626 24.5303 23.9697L19.0607 18.5L24.5303 13.0303C24.8232 12.7374 24.8232 12.2626 24.5303 11.9697C24.2374 11.6768 23.7626 11.6768 23.4697 11.9697L18 17.4393L12.5303 11.9697Z" fill="#333333"/>
</svg>
