<svg width="24" height="24" viewBox="0 0 24 24" fill="none" xmlns="http://www.w3.org/2000/svg">
<path d="M20.0035 7.9983H16.0019C15.4494 7.9983 15.0015 7.5504 15.0015 6.99788V2.99622" stroke="#666666" stroke-width="1.5" stroke-linecap="round" stroke-linejoin="round"/>
<path d="M5.99756 7.9983V4.99705C5.99756 3.89202 6.89336 2.99622 7.99839 2.99622H15.1734C15.704 2.99622 16.2128 3.2072 16.588 3.58246L19.4171 6.41164C19.7924 6.78678 20.0034 7.29562 20.0034 7.82623V19.0029C20.0034 20.1079 19.1076 21.0037 18.0026 21.0037H7.99839C6.89336 21.0037 5.99756 20.1079 5.99756 19.0029V18.0025" stroke="#666666" stroke-width="1.5" stroke-linecap="round" stroke-linejoin="round"/>
<path d="M9.86104 11.962L7.36 14.463L5.85938 12.9624" stroke="#666666" stroke-width="1.5" stroke-linecap="round" stroke-linejoin="round"/>
<rect x="2.99658" y="7.99835" width="10.0042" height="10.0042" rx="3" stroke="#666666" stroke-width="1.5" stroke-linecap="round" stroke-linejoin="round"/>
</svg>
