<svg width="24" height="24" viewBox="0 0 24 24" fill="none" xmlns="http://www.w3.org/2000/svg">
<path d="M20 5C20 3.895 19.105 3 18 3" stroke="#666666" stroke-width="1.5" stroke-linecap="round" stroke-linejoin="round"/>
<path d="M18 3H6C4.895 3 4 3.895 4 5V19C4 20.105 4.895 21 6 21H18C19.105 21 20 20.105 20 19" stroke="#666666" stroke-width="1.5" stroke-linecap="round" stroke-linejoin="round"/>
<path d="M8 3V21" stroke="#666666" stroke-width="1.5" stroke-linecap="round" stroke-linejoin="round"/>
<path fill-rule="evenodd" clip-rule="evenodd" d="M20 14H18C16.895 14 16 13.105 16 12V12C16 10.895 16.895 10 18 10H20C20.552 10 21 10.448 21 11V13C21 13.552 20.552 14 20 14Z" stroke="#666666" stroke-width="1.5" stroke-linecap="round" stroke-linejoin="round"/>
<path d="M20 5V10" stroke="#666666" stroke-width="1.5" stroke-linecap="round" stroke-linejoin="round"/>
<path d="M20 19V14" stroke="#666666" stroke-width="1.5" stroke-linecap="round" stroke-linejoin="round"/>
</svg>
