<svg width="201" height="139" viewBox="0 0 201 139" fill="none" xmlns="http://www.w3.org/2000/svg">
<g clip-path="url(#clip0_2_3323)">
<path d="M38.443 29.8401C44.7515 29.8401 49.8656 24.7202 49.8656 18.4044C49.8656 12.0887 44.7515 6.96875 38.443 6.96875C32.1346 6.96875 27.0205 12.0887 27.0205 18.4044C27.0205 24.7202 32.1346 29.8401 38.443 29.8401Z" fill="#EE215B"/>
<path d="M94.0177 61.3099C94.0177 88.293 77.9952 97.7145 58.2303 97.7145C38.4655 97.7145 22.4429 88.293 22.4429 61.3099C22.4429 34.3268 58.2303 0 58.2303 0C58.2303 0 94.0177 34.3268 94.0177 61.3099Z" fill="#F2F2F2"/>
<path d="M56.9266 93.587L57.2932 71.0045L72.5466 43.0668L57.3507 67.462L57.5154 57.308L68.0281 37.0954L57.559 54.6209L57.8552 36.3585L69.1125 20.2667L57.902 33.4867L58.0871 0L56.9234 44.3304L57.0191 42.5016L45.5739 24.9627L56.8356 46.0122L55.7692 66.4081L55.7374 65.8669L42.543 47.4097L55.6974 67.7793L55.5641 70.33L55.5402 70.3684L55.5511 70.5778L52.8456 122.324H56.4604L56.8941 95.5961L70.0161 75.2763L56.9266 93.587Z" fill="#333333"/>
<path d="M200.5 72.3616C200.5 94.4485 187.385 102.16 171.206 102.16C155.028 102.16 141.913 94.4485 141.913 72.3616C141.913 50.2746 171.206 22.1765 171.206 22.1765C171.206 22.1765 200.5 50.2746 200.5 72.3616Z" fill="#F2F2F2"/>
<path d="M170.139 98.7819L170.439 80.2971L182.925 57.4288L170.486 77.3973L170.621 69.0859L179.226 52.5408L170.657 66.8863L170.899 51.9377L180.114 38.7658L170.937 49.5871L171.089 22.1765L170.136 58.463L170.215 56.9662L160.846 42.6096L170.064 59.8398L169.191 76.5348L169.165 76.0917L158.365 60.9835L169.133 77.6571L169.024 79.745L169.004 79.7765L169.013 79.9478L166.798 122.305H169.757L170.112 100.426L180.853 83.7938L170.139 98.7819Z" fill="#333333"/>
<path d="M99.482 126.599C154.148 126.599 198.464 124.356 198.464 121.59C198.464 118.823 154.148 116.581 99.482 116.581C44.8158 116.581 0.5 118.823 0.5 121.59C0.5 124.356 44.8158 126.599 99.482 126.599Z" fill="#333333"/>
<path d="M159.781 130.724C169.144 130.724 176.734 130.34 176.734 129.866C176.734 129.392 169.144 129.008 159.781 129.008C150.418 129.008 142.828 129.392 142.828 129.866C142.828 130.34 150.418 130.724 159.781 130.724Z" fill="#333333"/>
<path d="M98.4338 139C107.797 139 115.387 138.616 115.387 138.142C115.387 137.668 107.797 137.284 98.4338 137.284C89.0707 137.284 81.4805 137.668 81.4805 138.142C81.4805 138.616 89.0707 139 98.4338 139Z" fill="#333333"/>
<path d="M51.8913 133.163C73.2824 133.163 90.6233 132.285 90.6233 131.203C90.6233 130.12 73.2824 129.243 51.8913 129.243C30.5001 129.243 13.1592 130.12 13.1592 131.203C13.1592 132.285 30.5001 133.163 51.8913 133.163Z" fill="#333333"/>
<path d="M17.8272 115.299C25.6143 115.299 31.9269 108.979 31.9269 101.183C31.9269 93.3866 25.6143 87.0667 17.8272 87.0667C10.0402 87.0667 3.72754 93.3866 3.72754 101.183C3.72754 108.979 10.0402 115.299 17.8272 115.299Z" fill="#333333"/>
<path d="M15.5551 112.235L11.272 112.184L11.1815 119.867L15.4647 119.918L15.5551 112.235Z" fill="#333333"/>
<path d="M24.1215 112.336L19.8384 112.285L19.748 119.968L24.0311 120.019L24.1215 112.336Z" fill="#333333"/>
<path d="M18.3194 120.041C18.3281 119.3 16.7371 118.682 14.7659 118.658C12.7946 118.635 11.1895 119.216 11.1808 119.956C11.1721 120.696 12.7631 121.315 14.7343 121.338C16.7056 121.362 18.3107 120.781 18.3194 120.041Z" fill="#333333"/>
<path d="M26.8878 119.963C26.8965 119.223 25.3055 118.604 23.3342 118.581C21.363 118.558 19.7579 119.139 19.7492 119.879C19.7405 120.619 21.3314 121.238 23.3027 121.261C25.274 121.284 26.879 120.703 26.8878 119.963Z" fill="#333333"/>
<path d="M18.2261 102.438C20.8875 102.438 23.045 100.278 23.045 97.6133C23.045 94.9488 20.8875 92.7888 18.2261 92.7888C15.5647 92.7888 13.4072 94.9488 13.4072 97.6133C13.4072 100.278 15.5647 102.438 18.2261 102.438Z" fill="white"/>
<path d="M18.2264 99.2214C19.1135 99.2214 19.8327 98.5014 19.8327 97.6133C19.8327 96.7251 19.1135 96.0051 18.2264 96.0051C17.3393 96.0051 16.6201 96.7251 16.6201 97.6133C16.6201 98.5014 17.3393 99.2214 18.2264 99.2214Z" fill="#333333"/>
<path d="M4.30547 87.8945C3.22714 82.7769 6.92686 77.6623 12.569 76.4707C18.2112 75.2791 23.6593 78.4618 24.7376 83.5794C25.8159 88.697 22.0643 90.5355 16.4221 91.7271C10.78 92.9187 5.3838 93.0122 4.30547 87.8945Z" fill="#0091FF"/>
<path d="M39.335 109.057C39.335 118.899 33.4917 122.335 26.283 122.335C26.116 122.335 25.9493 122.333 25.7828 122.329C25.4488 122.322 25.118 122.306 24.7911 122.284C18.2854 121.823 13.231 118.21 13.231 109.057C13.231 99.5857 25.3208 87.6341 26.2289 86.7496L26.2305 86.748C26.2655 86.7137 26.283 86.697 26.283 86.697C26.283 86.697 39.335 99.2163 39.335 109.057Z" fill="#0091FF"/>
<path d="M25.8076 120.829L30.5814 114.151L25.7957 121.562L25.783 122.329C25.449 122.322 25.1182 122.306 24.7913 122.284L25.3059 112.438L25.3019 112.361L25.3106 112.347L25.3591 111.417L20.5615 103.988L25.3742 110.72L25.3854 110.917L25.7742 103.478L21.6669 95.8009L25.8243 102.172L26.2291 86.7496L26.2307 86.697V86.748L26.1631 98.9098L30.2521 94.0884L26.1464 99.9575L26.0382 106.618L29.8561 100.226L26.0224 107.598L25.9619 111.301L31.5046 102.404L25.9412 112.593L25.8076 120.829Z" fill="#333333"/>
<path d="M127.662 115.146C135.449 115.146 141.762 108.826 141.762 101.03C141.762 93.234 135.449 86.9141 127.662 86.9141C119.875 86.9141 113.562 93.234 113.562 101.03C113.562 108.826 119.875 115.146 127.662 115.146Z" fill="#333333"/>
<path d="M128.865 112.249L124.771 113.509L127.025 120.853L131.12 119.594L128.865 112.249Z" fill="#333333"/>
<path d="M137.054 109.73L132.96 110.99L135.214 118.335L139.309 117.075L137.054 109.73Z" fill="#333333"/>
<path d="M130.857 121.17C132.742 120.59 134.093 119.547 133.876 118.839C133.659 118.132 131.955 118.028 130.071 118.608C128.186 119.188 126.835 120.231 127.052 120.939C127.269 121.646 128.973 121.75 130.857 121.17Z" fill="#333333"/>
<path d="M138.994 118.479C140.878 117.9 142.23 116.856 142.013 116.149C141.796 115.441 140.092 115.338 138.207 115.917C136.323 116.497 134.971 117.541 135.189 118.248C135.406 118.956 137.109 119.059 138.994 118.479Z" fill="#333333"/>
<path d="M126.955 102.333C129.616 102.333 131.773 100.173 131.773 97.509C131.773 94.8445 129.616 92.6846 126.955 92.6846C124.293 92.6846 122.136 94.8445 122.136 97.509C122.136 100.173 124.293 102.333 126.955 102.333Z" fill="white"/>
<path d="M126.955 99.1169C127.842 99.1169 128.561 98.3969 128.561 97.5088C128.561 96.6206 127.842 95.9006 126.955 95.9006C126.068 95.9006 125.349 96.6206 125.349 97.5088C125.349 98.3969 126.068 99.1169 126.955 99.1169Z" fill="#333333"/>
<path d="M110.736 92.5042C108.15 87.9597 110.116 81.9591 115.126 79.1014C120.136 76.2437 126.294 77.6111 128.88 82.1555C131.466 86.7 128.454 89.5965 123.443 92.4542C118.433 95.3119 113.323 97.0487 110.736 92.5042Z" fill="#0091FF"/>
<path d="M102.516 107.255C102.516 116.289 97.1522 119.443 90.5349 119.443C90.3816 119.443 90.2285 119.442 90.0757 119.438C89.7691 119.432 89.4654 119.417 89.1654 119.396C83.1935 118.973 78.5537 115.657 78.5537 107.255C78.5537 98.5608 89.6516 87.5897 90.4852 86.7777L90.4867 86.7763C90.5188 86.7448 90.5349 86.7295 90.5349 86.7295C90.5349 86.7295 102.516 98.2217 102.516 107.255Z" fill="#0091FF"/>
<path d="M90.0984 118.061L94.4804 111.931L90.0874 118.734L90.0758 119.438C89.7692 119.432 89.4655 119.417 89.1655 119.396L89.6378 110.358L89.6341 110.288L89.6421 110.275L89.6867 109.421L85.2827 102.601L89.7005 108.781L89.7108 108.963L90.0677 102.134L86.2974 95.0864L90.1137 100.935L90.4853 86.7777L90.4867 86.7295V86.7763L90.4247 97.9403L94.1782 93.5144L90.4093 98.902L90.3101 105.016L93.8147 99.1483L90.2955 105.916L90.24 109.315L95.3279 101.148L90.221 110.501L90.0984 118.061Z" fill="#333333"/>
<path d="M149.634 111.023C149.634 120.864 143.791 124.3 136.582 124.3C136.415 124.3 136.248 124.298 136.082 124.295C135.748 124.288 135.417 124.272 135.09 124.249C128.584 123.788 123.53 120.175 123.53 111.023C123.53 101.551 135.62 89.5996 136.528 88.7151L136.529 88.7136C136.564 88.6793 136.582 88.6626 136.582 88.6626C136.582 88.6626 149.634 101.182 149.634 111.023Z" fill="#0091FF"/>
<path d="M136.106 122.795L140.88 116.117L136.095 123.528L136.082 124.295C135.748 124.287 135.417 124.272 135.09 124.249L135.605 114.403L135.601 114.327L135.609 114.313L135.658 113.383L130.86 105.953L135.673 112.685L135.684 112.883L136.073 105.444L131.966 97.7665L136.123 104.138L136.528 88.7151L136.53 88.6626V88.7136L136.462 100.875L140.551 96.054L136.445 101.923L136.337 108.584L140.155 102.191L136.321 109.564L136.261 113.267L141.803 104.37L136.24 114.559L136.106 122.795Z" fill="#333333"/>
<path d="M128.558 109.48C129.082 108.374 126.655 106.124 123.137 104.453C119.619 102.783 116.342 102.325 115.819 103.431C115.295 104.537 117.722 106.787 121.24 108.457C124.758 110.128 128.034 110.586 128.558 109.48Z" fill="#333333"/>
<path d="M20.0394 108.188C20.4941 107.052 17.933 104.956 14.319 103.505C10.705 102.055 7.40656 101.8 6.95181 102.936C6.49706 104.072 9.05816 106.169 12.6722 107.619C16.2862 109.069 19.5846 109.324 20.0394 108.188Z" fill="#333333"/>
</g>
<defs>
<clipPath id="clip0_2_3323">
<rect width="200" height="139" fill="white" transform="translate(0.5)"/>
</clipPath>
</defs>
</svg>
